<svg width="58" height="58" viewBox="0 0 58 58" fill="none" xmlns="http://www.w3.org/2000/svg">
<g clip-path="url(#clip0_3_12)">
<path d="M40.1989 39.8847C42.3014 39.7034 43.9278 37.8547 43.8239 35.6458C43.7103 33.437 41.9002 31.6632 39.6938 31.6632H39.5464C38.4514 31.7022 37.4168 32.1745 36.6699 32.9762C35.9231 33.7778 35.5252 34.8433 35.5637 35.9382C35.6362 37.0958 36.1099 38.0383 36.7575 38.7247C34.2249 43.6498 30.4234 47.27 24.6621 50.3126C20.7882 52.3377 16.6968 53.1014 12.7141 52.5601C9.38394 52.0888 6.77878 50.6026 5.18378 48.2125C2.79611 44.5899 2.57861 40.6822 4.56753 36.772C6.01753 33.9445 8.19011 31.8831 9.64011 30.8681C9.20278 29.6542 8.86336 28.4072 8.62511 27.1392C-2.09764 34.8193 -1.00531 45.3173 2.25236 50.2787C4.67869 53.8989 9.64011 56.2141 15.0704 56.2141C16.5204 56.2141 18.0429 56.1077 19.5243 55.7452C28.942 53.9352 36.0736 48.2874 40.165 39.9596L40.1989 39.8847ZM53.1232 30.8318C47.5165 24.2392 39.2564 20.619 29.841 20.619H28.6085C27.9971 19.2802 26.5858 18.4464 24.9884 18.4464H24.8796C22.6007 18.4464 20.8244 20.4039 20.8994 22.6828C20.9719 24.853 22.8182 26.6655 25.027 26.6655H25.2059C25.9893 26.6352 26.7475 26.3801 27.3899 25.9306C28.0322 25.481 28.5317 24.8561 28.8284 24.1304H30.1697C35.7498 24.1304 41.0326 25.7592 45.849 28.9444C49.5393 31.3732 52.1855 34.5583 53.6718 38.3622C54.9719 41.4748 54.9019 44.5174 53.563 47.0549C51.4968 51.0352 48.0192 53.1377 43.4227 53.1377C40.5251 53.1377 37.7024 52.2314 36.2524 51.5813C35.3824 52.3015 33.9324 53.4977 32.8836 54.2227C36.0688 55.6679 39.2926 56.5017 42.4053 56.5017C49.4668 56.5017 54.7158 52.5214 56.7095 48.6813C58.8797 44.3362 58.7009 37.0233 53.157 30.7593L53.1232 30.8318ZM15.6842 41.1848C15.7567 43.3574 17.6006 45.1675 19.8119 45.1675H19.9569C20.5008 45.1546 21.0368 45.033 21.5331 44.8101C22.0295 44.5872 22.4763 44.2673 22.8473 43.8692C23.2183 43.4712 23.5061 43.0031 23.6936 42.4923C23.8812 41.9815 23.9648 41.4384 23.9395 40.8948C23.9395 38.7198 22.0569 36.9146 19.8481 36.9146H19.7031C19.5581 36.9146 19.3406 36.9146 19.1569 36.9847C16.153 31.9145 14.8843 26.4794 15.3579 20.619C15.6479 16.2013 17.0979 12.3612 19.7007 9.17607C21.8757 6.45974 25.9671 5.11607 28.7559 5.0484C36.5763 4.90099 39.8364 14.645 40.0877 18.5189L43.7079 19.6064C42.8741 7.72607 35.4912 1.49832 28.4297 1.49832C21.7984 1.49832 15.6842 6.31474 13.2192 13.3762C9.85278 22.7892 12.0616 31.8444 16.1917 39.0872C15.8292 39.5584 15.6117 40.3897 15.6842 41.1848Z" fill="#00DA64"/>
</g>
<defs>
<clipPath id="clip0_3_12">
<rect width="58" height="58" fill="white"/>
</clipPath>
</defs>
</svg>
